<svg width="1280" height="800" viewBox="0 0 1280 800" fill="none" xmlns="http://www.w3.org/2000/svg" role="img" aria-labelledby="title desc">
  <title id="title">Smart Canteen project placeholder</title>
  <desc id="desc">A calm dark interface preview with menu and order cards.</desc>
  <rect width="1280" height="800" fill="#151a23"/>
  <rect x="88" y="78" width="1104" height="644" rx="28" fill="#1f2633" stroke="#3b465a" stroke-width="2"/>
  <rect x="130" y="124" width="248" height="552" rx="18" fill="#11151d"/>
  <rect x="420" y="124" width="326" height="252" rx="18" fill="#151b25" stroke="#344054"/>
  <rect x="786" y="124" width="326" height="252" rx="18" fill="#151b25" stroke="#344054"/>
  <rect x="420" y="424" width="692" height="142" rx="18" fill="#151b25" stroke="#344054"/>
  <rect x="420" y="600" width="506" height="34" rx="17" fill="#65AEFA" fill-opacity="0.85"/>
  <rect x="160" y="158" width="162" height="16" rx="8" fill="#D8EAFF"/>
  <rect x="160" y="208" width="118" height="12" rx="6" fill="#657084"/>
  <rect x="160" y="248" width="154" height="12" rx="6" fill="#657084"/>
  <rect x="160" y="288" width="104" height="12" rx="6" fill="#657084"/>
  <circle cx="542" cy="232" r="52" fill="#65AEFA" fill-opacity="0.16"/>
  <path d="M520 238c18-34 51-34 69 0" stroke="#96C8FF" stroke-width="14" stroke-linecap="round"/>
  <rect x="470" y="312" width="184" height="16" rx="8" fill="#D8EAFF"/>
  <rect x="836" y="172" width="206" height="24" rx="12" fill="#D8EAFF"/>
  <rect x="836" y="226" width="178" height="14" rx="7" fill="#657084"/>
  <rect x="836" y="266" width="128" height="14" rx="7" fill="#657084"/>
  <rect x="470" y="470" width="230" height="18" rx="9" fill="#D8EAFF"/>
  <rect x="470" y="516" width="520" height="14" rx="7" fill="#657084"/>
</svg>
